<svg width="100%" height="100%" viewBox="0 0 66 19" fill="none" xmlns="http://www.w3.org/2000/svg">
<path d="M18.888 1.368V1.848C18.344 1.864 17.928 1.928 17.64 2.04C17.368 2.136 17.184 2.328 17.088 2.616C16.992 2.888 16.944 3.32 16.944 3.912V15.816C16.944 16.392 16.992 16.824 17.088 17.112C17.184 17.4 17.368 17.592 17.64 17.688C17.928 17.784 18.344 17.848 18.888 17.88V18.36C18.52 18.328 18.056 18.312 17.496 18.312C16.952 18.296 16.4 18.288 15.84 18.288C15.216 18.288 14.632 18.296 14.088 18.312C13.544 18.312 13.104 18.328 12.768 18.36V17.88C13.312 17.848 13.72 17.784 13.992 17.688C14.28 17.592 14.472 17.4 14.568 17.112C14.664 16.824 14.712 16.392 14.712 15.816V2.616L14.808 2.688L8.928 18.48H8.544L2.496 2.904V15.576C2.496 16.152 2.544 16.608 2.64 16.944C2.752 17.264 2.96 17.496 3.264 17.64C3.584 17.768 4.056 17.848 4.68 17.88V18.36C4.392 18.328 4.016 18.312 3.552 18.312C3.088 18.296 2.648 18.288 2.232 18.288C1.832 18.288 1.424 18.296 1.008 18.312C0.608 18.312 0.272 18.328 0 18.36V17.88C0.544 17.848 0.952 17.768 1.224 17.64C1.512 17.496 1.704 17.264 1.8 16.944C1.896 16.608 1.944 16.152 1.944 15.576V3.912C1.944 3.32 1.896 2.888 1.8 2.616C1.704 2.328 1.512 2.136 1.224 2.04C0.952 1.928 0.544 1.864 0 1.848V1.368C0.272 1.384 0.608 1.4 1.008 1.416C1.424 1.432 1.832 1.44 2.232 1.44C2.584 1.44 2.944 1.432 3.312 1.416C3.696 1.4 4.016 1.384 4.272 1.368L9.72 15.72L9.312 15.912L14.712 1.44C14.904 1.44 15.088 1.44 15.264 1.44C15.456 1.44 15.648 1.44 15.84 1.44C16.4 1.44 16.952 1.432 17.496 1.416C18.056 1.4 18.52 1.384 18.888 1.368Z" fill="#D99F54"/>
<path d="M23.3302 0C23.7462 0 24.1062 0.152 24.4102 0.456C24.7142 0.76 24.8663 1.12 24.8663 1.536C24.8663 1.952 24.7142 2.312 24.4102 2.616C24.1062 2.92 23.7462 3.072 23.3302 3.072C22.9142 3.072 22.5542 2.92 22.2502 2.616C21.9462 2.312 21.7943 1.952 21.7943 1.536C21.7943 1.12 21.9462 0.76 22.2502 0.456C22.5542 0.152 22.9142 0 23.3302 0ZM24.5783 5.736V16.128C24.5783 16.8 24.7142 17.256 24.9862 17.496C25.2742 17.736 25.7462 17.856 26.4023 17.856V18.36C26.1302 18.344 25.7143 18.328 25.1543 18.312C24.6103 18.28 24.0583 18.264 23.4983 18.264C22.9543 18.264 22.4023 18.28 21.8423 18.312C21.2823 18.328 20.8662 18.344 20.5942 18.36V17.856C21.2502 17.856 21.7142 17.736 21.9862 17.496C22.2742 17.256 22.4182 16.8 22.4182 16.128V8.616C22.4182 7.896 22.2903 7.368 22.0343 7.032C21.7783 6.68 21.2982 6.504 20.5942 6.504V6C21.1062 6.048 21.6023 6.072 22.0823 6.072C22.5463 6.072 22.9863 6.048 23.4023 6C23.8343 5.936 24.2263 5.848 24.5783 5.736Z" fill="#D99F54"/>
<path d="M35.5455 5.664C36.1055 5.664 36.5935 5.744 37.0095 5.904C37.4255 6.064 37.7695 6.288 38.0415 6.576C38.3455 6.896 38.5535 7.312 38.6655 7.824C38.7775 8.336 38.8335 8.968 38.8335 9.72V16.128C38.8335 16.8 38.9695 17.256 39.2415 17.496C39.5295 17.736 40.0015 17.856 40.6575 17.856V18.36C40.3855 18.344 39.9695 18.328 39.4095 18.312C38.8495 18.28 38.3055 18.264 37.7775 18.264C37.2495 18.264 36.7295 18.28 36.2175 18.312C35.7215 18.328 35.3455 18.344 35.0895 18.36V17.856C35.6655 17.856 36.0735 17.736 36.3135 17.496C36.5535 17.256 36.6735 16.8 36.6735 16.128V9.192C36.6735 8.696 36.6415 8.24 36.5775 7.824C36.5135 7.408 36.3535 7.072 36.0975 6.816C35.8415 6.56 35.4255 6.432 34.8495 6.432C34.2255 6.432 33.6655 6.624 33.1695 7.008C32.6895 7.392 32.3055 7.92 32.0175 8.592C31.7455 9.248 31.6095 9.984 31.6095 10.8V16.128C31.6095 16.8 31.7295 17.256 31.9695 17.496C32.2095 17.736 32.6175 17.856 33.1935 17.856V18.36C32.9375 18.344 32.5535 18.328 32.0415 18.312C31.5455 18.28 31.0335 18.264 30.5055 18.264C29.9775 18.264 29.4335 18.28 28.8735 18.312C28.3135 18.328 27.8975 18.344 27.6255 18.36V17.856C28.2815 17.856 28.7455 17.736 29.0175 17.496C29.3055 17.256 29.4495 16.8 29.4495 16.128V8.616C29.4495 7.896 29.3215 7.368 29.0655 7.032C28.8095 6.68 28.3295 6.504 27.6255 6.504V6C28.1375 6.048 28.6335 6.072 29.1135 6.072C29.5775 6.072 30.0175 6.048 30.4335 6C30.8655 5.936 31.2575 5.848 31.6095 5.736V8.568C32.0255 7.528 32.5935 6.784 33.3135 6.336C34.0335 5.888 34.7775 5.664 35.5455 5.664ZM42.7695 5.664C43.3295 5.664 43.8175 5.744 44.2335 5.904C44.6495 6.064 44.9935 6.288 45.2655 6.576C45.5695 6.896 45.7775 7.312 45.8895 7.824C46.0015 8.336 46.0575 8.968 46.0575 9.72V16.128C46.0575 16.8 46.1935 17.256 46.4655 17.496C46.7535 17.736 47.2255 17.856 47.8815 17.856V18.36C47.6095 18.344 47.1935 18.328 46.6335 18.312C46.0735 18.28 45.5295 18.264 45.0015 18.264C44.4735 18.264 43.9535 18.28 43.4415 18.312C42.9455 18.328 42.5695 18.344 42.3135 18.36V17.856C42.8895 17.856 43.2975 17.736 43.5375 17.496C43.7775 17.256 43.8975 16.8 43.8975 16.128V9.192C43.8975 8.696 43.8655 8.24 43.8015 7.824C43.7375 7.408 43.5775 7.072 43.3215 6.816C43.0655 6.56 42.6495 6.432 42.0735 6.432C41.4495 6.432 40.8895 6.624 40.3935 7.008C39.9135 7.392 39.5295 7.912 39.2415 8.568C38.9695 9.224 38.8335 9.96 38.8335 10.776L38.7615 8.544C39.1935 7.44 39.7775 6.688 40.5135 6.288C41.2495 5.872 42.0015 5.664 42.7695 5.664Z" fill="#D99F54"/>
<path d="M51.6662 0C52.0822 0 52.4422 0.152 52.7462 0.456C53.0502 0.76 53.2022 1.12 53.2022 1.536C53.2022 1.952 53.0502 2.312 52.7462 2.616C52.4422 2.92 52.0822 3.072 51.6662 3.072C51.2502 3.072 50.8902 2.92 50.5862 2.616C50.2822 2.312 50.1302 1.952 50.1302 1.536C50.1302 1.12 50.2822 0.76 50.5862 0.456C50.8902 0.152 51.2502 0 51.6662 0ZM52.9142 5.736V16.128C52.9142 16.8 53.0502 17.256 53.3222 17.496C53.6102 17.736 54.0822 17.856 54.7382 17.856V18.36C54.4662 18.344 54.0502 18.328 53.4902 18.312C52.9462 18.28 52.3942 18.264 51.8342 18.264C51.2902 18.264 50.7382 18.28 50.1782 18.312C49.6182 18.328 49.2022 18.344 48.9302 18.36V17.856C49.5862 17.856 50.0502 17.736 50.3222 17.496C50.6102 17.256 50.7542 16.8 50.7542 16.128V8.616C50.7542 7.896 50.6262 7.368 50.3702 7.032C50.1142 6.68 49.6342 6.504 48.9302 6.504V6C49.4422 6.048 49.9382 6.072 50.4182 6.072C50.8822 6.072 51.3222 6.048 51.7382 6C52.1702 5.936 52.5622 5.848 52.9142 5.736Z" fill="#D99F54"/>
<path d="M63.4254 5.664C63.8574 5.664 64.2334 5.752 64.5534 5.928C64.8894 6.104 65.1454 6.336 65.3214 6.624C65.5134 6.896 65.6094 7.208 65.6094 7.56C65.6094 7.96 65.4814 8.312 65.2254 8.616C64.9854 8.92 64.6574 9.072 64.2414 9.072C63.9054 9.072 63.6094 8.968 63.3534 8.76C63.0974 8.536 62.9694 8.224 62.9694 7.824C62.9694 7.52 63.0494 7.264 63.2094 7.056C63.3854 6.832 63.5774 6.656 63.7854 6.528C63.6734 6.368 63.5054 6.288 63.2814 6.288C62.7854 6.288 62.3294 6.44 61.9134 6.744C61.4974 7.032 61.1454 7.408 60.8574 7.872C60.5694 8.336 60.3454 8.832 60.1854 9.36C60.0254 9.872 59.9454 10.352 59.9454 10.8V15.888C59.9454 16.672 60.1694 17.2 60.6174 17.472C61.0814 17.728 61.7054 17.856 62.4894 17.856V18.36C62.1214 18.344 61.6014 18.328 60.9294 18.312C60.2574 18.28 59.5454 18.264 58.7934 18.264C58.2494 18.264 57.7054 18.28 57.1614 18.312C56.6334 18.328 56.2334 18.344 55.9614 18.36V17.856C56.6174 17.856 57.0814 17.736 57.3534 17.496C57.6414 17.256 57.7854 16.8 57.7854 16.128V8.616C57.7854 7.896 57.6574 7.368 57.4014 7.032C57.1454 6.68 56.6654 6.504 55.9614 6.504V6C56.4734 6.048 56.9694 6.072 57.4494 6.072C57.9134 6.072 58.3534 6.048 58.7694 6C59.2014 5.936 59.5934 5.848 59.9454 5.736V8.736C60.1214 8.272 60.3694 7.808 60.6894 7.344C61.0254 6.864 61.4254 6.464 61.8894 6.144C62.3534 5.824 62.8654 5.664 63.4254 5.664Z" fill="#D99F54"/>
</svg>
